<svg width="23" height="15" viewBox="0 0 23 15" fill="none" xmlns="http://www.w3.org/2000/svg">
<path d="M22.6667 7.53369C22.6667 7.96833 22.3145 8.32062 21.8798 8.32062H2.92949L7.89355 13.2801C8.04453 13.4311 8.1223 13.6324 8.1223 13.8337C8.1223 14.035 8.04453 14.2363 7.89355 14.3873C7.58701 14.6938 7.08832 14.6938 6.78178 14.3873L0.486359 8.08729C0.193548 7.79448 0.193548 7.27291 0.486359 6.97552L6.78636 0.680097C7.09289 0.373561 7.59159 0.373561 7.89812 0.680097C8.20466 0.986633 8.20466 1.48533 7.89812 1.79186L2.93864 6.75134H21.8844C22.319 6.74676 22.6667 7.09905 22.6667 7.53369Z" fill="#fff"/>
</svg>
