<svg width="21" height="15" viewBox="0 0 21 15" fill="none" xmlns="http://www.w3.org/2000/svg">
<path  d="M0 7.50015C0 7.90763 0.33027 8.2379 0.737745 8.2379H18.5037L13.8499 12.8874C13.7083 13.029 13.6354 13.2177 13.6354 13.4064C13.6354 13.5951 13.7083 13.7839 13.8499 13.9254C14.1373 14.2128 14.6048 14.2128 14.8922 13.9254L20.7941 8.01915C21.0686 7.74464 21.0686 7.25567 20.7941 6.97687L14.8879 1.07491C14.6005 0.787531 14.133 0.787531 13.8456 1.07491C13.5582 1.36229 13.5582 1.82981 13.8456 2.11719L18.4951 6.7667H0.733456C0.32598 6.76241 0 7.09268 0 7.50015Z" fill="#fff"/>
</svg>
