<svg width="118" height="26" viewBox="0 0 118 26" fill="none" xmlns="http://www.w3.org/2000/svg">
<path d="M13 26C20.1797 26 26 20.1797 26 13C26 5.8203 20.1797 0 13 0C5.8203 0 0 5.8203 0 13C0 20.1797 5.8203 26 13 26Z" fill="#00AFAB"/>
<path d="M59 26C66.1797 26 72 20.1797 72 13C72 5.8203 66.1797 0 59 0C51.8203 0 46 5.8203 46 13C46 20.1797 51.8203 26 59 26Z" fill="#00AFAB"/>
<path d="M105 26C112.18 26 118 20.1797 118 13C118 5.8203 112.18 0 105 0C97.8203 0 92 5.8203 92 13C92 20.1797 97.8203 26 105 26Z" fill="#00AFAB"/>
</svg>
