<svg width="22" height="22" viewBox="0 0 22 22" fill="none" xmlns="http://www.w3.org/2000/svg">
<path d="M21.3666 13.4701C22.9598 6.53575 16.6879 0.23627 9.3225 1.44556C5.324 -0.957924 0 1.75809 0 6.36617C0 7.43783 0.30525 8.44113 0.836 9.30592C-0.644417 16.2562 5.67875 22.4651 13.0378 21.1733C18.2398 23.8378 23.9883 18.5239 21.3666 13.4701ZM14.3651 17.652C12.4328 18.4217 9.25283 18.4262 7.32875 17.4504C4.58517 16.0334 4.0975 12.8432 6.46433 12.8432C8.24817 12.8432 7.6835 14.8578 9.48475 15.6791C10.3116 16.0493 12.089 16.0875 13.1221 15.4127C14.1423 14.7513 14.0488 13.7107 13.4943 13.2135C12.0248 11.8994 7.82008 12.4215 5.89783 10.121C5.06275 9.12302 4.90508 7.36236 5.93175 6.0856C7.72108 3.85525 12.9718 3.71941 15.2295 5.40371C17.314 6.96637 16.7512 9.04045 15.0691 9.04045C13.046 9.04045 14.1093 6.47626 10.8433 6.47626C8.4755 6.47626 7.54417 8.10729 9.21158 8.90105C11.4721 9.9887 17.2324 9.62556 17.2324 13.8758C17.2278 15.6445 16.1086 16.963 14.3651 17.652Z" fill="black"/>
</svg>
