<svg width="13" height="14" viewBox="0 0 13 14" fill="none" xmlns="http://www.w3.org/2000/svg">
<g clip-path="url(#clip0)">
<path d="M6.49994 8.05566C10.406 8.05566 12.5571 9.90349 12.5571 13.2588C12.5571 13.5209 12.3447 13.7333 12.0827 13.7333H0.91723C0.655173 13.7333 0.44278 13.5209 0.44278 13.2588C0.442755 9.90367 2.59392 8.05566 6.49994 8.05566ZM11.591 12.7844C11.4043 10.2756 9.69396 9.00459 6.49994 9.00459C3.30593 9.00459 1.59551 10.2756 1.40874 12.7844H11.591Z" fill="white"/>
<path d="M6.49978 0.733337C8.29401 0.733337 9.64697 2.11352 9.64697 3.94365C9.64697 5.82738 8.23515 7.35971 6.49978 7.35971C4.7644 7.35971 3.35258 5.82738 3.35258 3.9438C3.35258 2.11352 4.70555 0.733337 6.49978 0.733337ZM6.49978 6.41096C7.712 6.41096 8.69807 5.30421 8.69807 3.9438C8.69807 2.63337 7.77352 1.68224 6.49978 1.68224C5.24642 1.68224 4.30148 2.65439 4.30148 3.9438C4.30148 5.30421 5.28755 6.41096 6.49978 6.41096Z" fill="white"/>
</g>
<defs>
<clipPath id="clip0">
<rect width="13" height="13" fill="white" transform="matrix(-1 0 0 1 13 0.733337)"/>
</clipPath>
</defs>
</svg>
