<svg width="16" height="53" viewBox="0 0 16 53" fill="none" xmlns="http://www.w3.org/2000/svg">
<path d="M8.91335 52.6299L8.91458 52.6287L15.6243 46.035C16.1269 45.541 16.125 44.7421 15.6199 44.2504C15.1148 43.7587 14.2978 43.7606 13.7951 44.2546L9.29032 48.6816L9.29032 1.2619C9.29032 0.564955 8.71264 0 8 0C7.28735 0 6.70968 0.564955 6.70968 1.2619L6.70968 48.6816L2.2049 44.2547C1.70219 43.7607 0.885221 43.7588 0.380123 44.2504C-0.125103 44.7421 -0.126844 45.5412 0.375736 46.0351L7.08542 52.6288L7.08664 52.6299C7.59103 53.1241 8.41064 53.1226 8.91335 52.6299Z" fill="#F4F7F6"/>
</svg>
