<svg width="14" height="13" viewBox="0 0 14 13" fill="none" xmlns="http://www.w3.org/2000/svg">
<path d="M6.99999 12.9545C6.80068 12.9545 6.60852 12.8823 6.45877 12.7511C5.89321 12.2566 5.34794 11.7918 4.86686 11.3819L4.8644 11.3797C3.45396 10.1778 2.23599 9.1398 1.38855 8.11729C0.441238 6.9742 0 5.89038 0 4.70638C0 3.55602 0.394454 2.49474 1.11062 1.7179C1.83534 0.93187 2.82975 0.498962 3.911 0.498962C4.71914 0.498962 5.45923 0.754456 6.11068 1.25829C6.43944 1.5126 6.73744 1.82385 6.99999 2.1869C7.26264 1.82385 7.56053 1.5126 7.8894 1.25829C8.54085 0.754456 9.28094 0.498962 10.0891 0.498962C11.1702 0.498962 12.1647 0.93187 12.8895 1.7179C13.6056 2.49474 14 3.55602 14 4.70638C14 5.89038 13.5588 6.9742 12.6115 8.11719C11.7641 9.1398 10.5462 10.1777 9.136 11.3795C8.65407 11.7901 8.10794 12.2556 7.54109 12.7513C7.39145 12.8823 7.19919 12.9545 6.99999 12.9545ZM3.911 1.31906C3.06153 1.31906 2.28117 1.65808 1.71347 2.27374C1.13733 2.8987 0.819991 3.76259 0.819991 4.70638C0.819991 5.70218 1.19009 6.59277 2.01991 7.59402C2.82195 8.56184 4.01493 9.57848 5.39621 10.7556L5.39878 10.7578C5.88167 11.1693 6.42908 11.6359 6.99881 12.134C7.57196 11.6349 8.12022 11.1676 8.60408 10.7554C9.98526 9.57826 11.1781 8.56184 11.9802 7.59402C12.8099 6.59277 13.18 5.70218 13.18 4.70638C13.18 3.76259 12.8626 2.8987 12.2865 2.27374C11.7189 1.65808 10.9384 1.31906 10.0891 1.31906C9.46679 1.31906 8.89546 1.51688 8.39099 1.90695C7.94142 2.25473 7.62825 2.69437 7.44464 3.00198C7.35022 3.16017 7.18402 3.25459 6.99999 3.25459C6.81595 3.25459 6.64975 3.16017 6.55533 3.00198C6.37183 2.69437 6.05866 2.25473 5.60898 1.90695C5.10451 1.51688 4.53318 1.31906 3.911 1.31906Z" fill="white"/>
</svg>
