<svg width="35" height="36" viewBox="0 0 35 36" fill="none" xmlns="http://www.w3.org/2000/svg">
<circle cx="17.5" cy="18.2334" r="17.25" fill="black" fill-opacity="0.3" stroke="white" stroke-width="0.5"/>
<g clip-path="url(#clip0)">
<path d="M24.867 16.8362L19.9087 12.0237C19.7827 11.9012 19.5942 11.8668 19.4338 11.9344C19.2723 12.0033 19.1667 12.1619 19.1667 12.3375V14.8179C14.6499 14.896 11 18.5944 11 23.1292C11 23.3287 11.1406 23.492 11.3337 23.5422C11.3681 23.5509 11.4025 23.555 11.4369 23.555C11.5967 23.555 11.7525 23.4634 11.8324 23.3194C13.142 20.9534 15.6352 19.4834 18.3395 19.4834H19.1667V21.9625C19.1667 22.1381 19.2723 22.2968 19.4338 22.3656C19.5937 22.4333 19.7832 22.3989 19.9087 22.2764L24.867 17.4639C24.9522 17.3816 25 17.2684 25 17.15C25 17.0316 24.9522 16.9184 24.867 16.8362Z" fill="white"/>
</g>
<defs>
<clipPath id="clip0">
<rect width="14" height="14" fill="white" transform="translate(11 10.7334)"/>
</clipPath>
</defs>
</svg>
