<svg xmlns="http://www.w3.org/2000/svg" viewBox="0 0 907.09 907.09"><defs><style>.cls-1{fill:#3d81c3;}.cls-2{fill:#316794;}</style></defs><g id="TEXT"><g id="Text-2" data-name="Text"><polygon class="cls-1" points="647.95 712.68 591 769.53 586.33 774.21 583.11 777.52 518.38 842.25 499.39 861.14 453.54 907.09 407.69 861.24 388.71 842.25 323.97 777.52 320.66 774.21 316.09 769.63 259.14 712.68 229.06 682.6 224.48 678.03 194.4 647.95 137.46 591 132.88 586.42 129.57 583.11 64.83 518.38 45.75 499.3 0 453.54 259.14 194.4 289.22 224.48 323.97 259.24 129.67 453.54 132.88 456.76 194.4 518.28 224.48 548.36 267.12 591 316.09 639.96 358.73 682.6 388.81 712.68 450.33 774.21 453.54 777.42 518.28 712.68 499.39 693.8 488.2 682.6 453.54 647.95 407.69 602.1 388.71 583.11 323.97 518.38 316.09 510.49 304.89 499.3 259.14 453.54 304.99 407.69 316.09 396.6 388.71 323.97 407.69 342.96 453.54 388.81 388.81 453.54 434.56 499.3 453.54 518.28 499.39 564.13 518.38 583.11 526.26 591 583.11 647.85 617.87 682.6 647.95 712.68"/><polygon class="cls-2" points="907.09 453.54 861.24 499.3 842.25 518.38 777.52 583.11 774.21 586.33 769.53 591 712.68 647.95 682.6 677.93 677.93 682.6 647.95 712.68 617.87 682.6 583.11 647.85 777.42 453.54 774.21 450.33 712.68 388.81 682.6 358.73 639.96 316.09 591 267.12 583.11 259.24 548.36 224.48 456.76 132.88 453.54 129.67 388.81 194.4 407.69 213.29 418.89 224.48 453.54 259.14 499.39 304.99 518.38 323.97 583.11 388.71 602.1 407.69 647.95 453.54 518.38 583.11 499.39 564.13 453.54 518.28 518.28 453.54 499.39 434.66 472.43 407.69 453.54 388.81 407.69 342.96 380.82 316.09 323.97 259.24 289.22 224.48 259.14 194.4 453.54 0 499.39 45.85 518.38 64.83 583.11 129.57 586.42 132.88 591 137.46 647.95 194.4 678.03 224.48 682.6 229.06 712.68 259.14 769.63 316.09 774.21 320.66 777.52 323.97 842.25 388.71 861.24 407.69 907.09 453.54"/></g></g></svg>