<svg width="18" height="19" viewBox="0 0 18 19" fill="none" xmlns="http://www.w3.org/2000/svg">
<g clip-path="url(#clip0)">
<path d="M9 18.7731C6.869 18.7731 4.80213 18.015 3.18013 16.6383C2.79928 16.3153 2.44202 15.9572 2.11838 15.574C0.752238 13.9547 0 11.8946 0 9.77307C0 7.36905 0.936141 5.10896 2.63602 3.40909C4.33589 1.70921 6.59598 0.773071 9 0.773071C11.404 0.773071 13.6641 1.70921 15.364 3.40909C17.0639 5.10896 18 7.36905 18 9.77307C18 11.8947 17.2478 13.9547 15.8818 15.5738C15.558 15.9572 15.2007 16.3153 14.8198 16.6385C13.1979 18.015 11.131 18.7731 9 18.7731ZM9 1.89807C4.65771 1.89807 1.125 5.43078 1.125 9.77307C1.125 11.6295 1.78309 13.4319 2.97805 14.8483C3.26141 15.1838 3.57434 15.4975 3.90797 15.7805C5.32702 16.9848 7.13535 17.6481 9 17.6481C10.8647 17.6481 12.673 16.9848 14.0919 15.7806C14.4257 15.4975 14.7386 15.1838 15.0221 14.8481C16.2169 13.432 16.875 11.6295 16.875 9.77307C16.875 5.43078 13.3423 1.89807 9 1.89807Z" fill="black"/>
<path d="M9 9.77307C7.139 9.77307 5.625 8.25907 5.625 6.39807C5.625 4.53708 7.139 3.02307 9 3.02307C10.861 3.02307 12.375 4.53708 12.375 6.39807C12.375 8.25907 10.861 9.77307 9 9.77307ZM9 4.14807C7.75934 4.14807 6.75 5.15741 6.75 6.39807C6.75 7.63874 7.75934 8.64807 9 8.64807C10.2407 8.64807 11.25 7.63874 11.25 6.39807C11.25 5.15741 10.2407 4.14807 9 4.14807Z" fill="black"/>
<path d="M14.4563 16.7721C14.411 16.7721 14.3649 16.7666 14.3189 16.7551C14.0176 16.6794 13.8347 16.3739 13.9103 16.0725C14.0113 15.6703 14.0625 15.2541 14.0625 14.8356C14.0625 12.0834 11.8249 9.81294 9.07407 9.77342L9 9.77307L8.92593 9.77342C6.17505 9.81294 3.9375 12.0834 3.9375 14.8356C3.9375 15.2541 3.98872 15.6703 4.08969 16.0725C4.16531 16.3739 3.98236 16.6794 3.68107 16.7551C3.37978 16.8307 3.07417 16.6478 2.99855 16.3464C2.87508 15.8546 2.8125 15.3463 2.8125 14.8356C2.8125 13.1981 3.44591 11.6545 4.59605 10.4892C5.74506 9.32504 7.27794 8.67134 8.91232 8.64849C8.91496 8.64846 8.91756 8.64846 8.9202 8.64846L9 8.64807L9.0798 8.64842C9.08244 8.64842 9.08504 8.64842 9.08768 8.64846C10.7221 8.67127 12.2549 9.325 13.404 10.4892C14.5541 11.6545 15.1875 13.1981 15.1875 14.8356C15.1875 15.3463 15.1249 15.8546 15.0015 16.3464C14.9374 16.6018 14.7081 16.7721 14.4563 16.7721Z" fill="black"/>
</g>
<defs>
<clipPath id="clip0">
<rect width="18" height="18" fill="white" transform="translate(0 0.773071)"/>
</clipPath>
</defs>
</svg>
